<svg xmlns="http://www.w3.org/2000/svg" width="128" height="128" viewBox="0 0 128 128">
  <circle cx="64" cy="64" r="64" fill="#25D366"/>
  <path fill="#FFF" d="M91.5 36.6C84.3 29.3 74.7 25.3 64.5 25.3c-21.1 0-38.3 17.2-38.3 38.3 0 6.7 1.8 13.3 5.1 19.1L25.8 102.7l20.5-5.4c5.5 3 11.7 4.6 18 4.6h.1c21.1 0 38.3-17.2 38.3-38.3 0-10.2-4-19.8-11.2-27zM64.4 95.3c-5.6 0-11-1.5-15.8-4.3l-1.1-.7-11.7 3.1 3.1-11.4-.7-1.2c-3.1-4.9-4.7-10.6-4.7-16.4 0-17.6 14.3-31.9 31.9-31.9 8.5 0 16.5 3.3 22.5 9.4 6 6 9.3 14 9.3 22.5.1 17.7-14.2 32-31.8 32zm17.6-23.9c-1-.5-5.7-2.8-6.6-3.1-.9-.3-1.5-.5-2.2.5-.6 1-2.5 3.1-3 3.7-.6.6-1.1.7-2.1.2-1-.5-4.1-1.5-7.8-4.8-2.9-2.6-4.8-5.7-5.4-6.7-.6-1 0-1.5.4-2 .4-.4.9-1.1 1.4-1.7.5-.6.6-1 .9-1.6.3-.6.2-1.2-.1-1.7-.3-.5-2.2-5.3-3-7.2-.8-1.9-1.6-1.6-2.2-1.7-.6 0-1.2 0-1.9 0s-1.7.3-2.6 1.2c-.9 1-3.5 3.4-3.5 8.3 0 4.9 3.5 9.6 4 10.3.5.6 7 11.4 17.8 15.4 2.5.9 4.4 1.4 5.9 1.8 2.5.7 4.7.6 6.5.4 2-.3 6.1-2.5 6.9-4.9.9-2.4.9-4.5.6-4.9-.3-.4-1-.6-2-1.1z"/>
</svg>
